<?xml version="1.0" encoding="utf-8"?>
<svg x="0px" y="0px" viewbox="0 0 448 512">
	<path fill="currentColor" class="shopping-bag-icon" d="M352 128C352 57.421 294.579 0 224 0 153.42 0 96 57.421 96 128H0v304c0 44.183 35.817 80 80 80h288c44.183 0 80-35.817 80-80V128h-96zM224 32c52.935 0 96 43.065 96 96H128c0-52.935 43.065-96 96-96zm192 400c0 26.467-21.533 48-48 48H80c-26.467 0-48-21.533-48-48V160h64v48c0 8.837 7.164 16 16 16s16-7.163 16-16v-48h192v48c0 8.837 7.163 16 16 16s16-7.163 16-16v-48h64v272z"/>
	<text fill="currentColor" class="shopping-bag-text" x="224" y="400" style="font-size: 12rem; text-anchor: middle; font-weight: 500">
		[{if $count != 0}]
			[{if $count > 9}]
				9+
				[{else}]
				[{$count}]
			[{/if}]
		[{/if}]
	</text>
</svg>
